#N canvas 894 196 649 664 12;
#X obj 106 103 hsl 148 15 0 127 0 0 empty manual_slider -1 8 0 0 4 #2f004d #ffffff #fcfcfc 0 0;
#X obj 106 142 hsl 148 15 0 127 0 0 empty playback_slider -1 8 0 0 4 #ffffff #000000 #fcfcfc 0 1;
#X obj 101 234 sliderloop;
#X msg 104 168 record;
#X msg 157 168 play;
#X msg 203 168 stop;
#X obj 104 121 bng 19 250 50 0 empty empty empty 0 -10 0 12 #ff0400 #000000 #000000;
#X obj 159 121 bng 19 250 50 0 empty empty empty 0 -10 0 12 #00ff04 #000000 #000000;
#X obj 213 121 bng 19 250 50 0 empty empty empty 0 -10 0 12 #9f9f9f #000000 #000000;
#X obj 101 283 outlet;
#X obj 183 121 tgl 19 0 empty empty empty 0 -10 0 12 #00ff04 #000000 #000000 0 1;
#X obj 237 121 tgl 19 0 empty empty empty 0 -10 0 12 #9f9f9f #000000 #000000 0 1;
#X obj 461 92 bng 19 250 50 0 empty empty empty 0 -10 0 12 #fcfcfc #000000 #000000;
#X msg 459 142 save ~/Documents/Pd/externals/my_automation.txt;
#X obj 11 234 spigot;
#X obj 130 121 tgl 19 0 empty empty empty 0 -10 0 12 #000000 #ffffff #000000 0 1;
#X obj 332 191 spigot;
#X obj 332 234 spigot;
#X obj 11 5 inlet;
#X obj 11 35 bang;
#X obj 461 17 bng 19 250 50 0 empty empty empty 0 -10 0 12 #fcfcfc #000000 #000000;
#X msg 459 59 load ~/Documents/Pd/externals/my_automation.txt;
#X obj 11 191 spigot;
#X obj 63 5 inlet;
#X obj 63 35 bang;
#X obj 117 5 inlet;
#X obj 117 35 bang;
#X obj 173 5 inlet;
#X obj 173 35 bang;
#X obj 227 5 inlet;
#X obj 227 35 bang;
#X obj 275 5 inlet;
#X obj 275 35 bang;
#X obj 392 5 inlet;
#X obj 392 35 bang;
#X obj 392 92 inlet;
#X obj 392 122 bang;
#X connect 0 0 14 0;
#X connect 0 0 2 0;
#X connect 2 0 1 0;
#X connect 2 0 9 0;
#X connect 3 0 2 0;
#X connect 4 0 2 0;
#X connect 5 0 2 0;
#X connect 6 0 22 0;
#X connect 7 0 4 0;
#X connect 7 0 16 0;
#X connect 8 0 17 0;
#X connect 10 0 16 1;
#X connect 11 0 17 1;
#X connect 12 0 13 0;
#X connect 13 0 2 0;
#X connect 14 0 9 0;
#X connect 15 0 14 1;
#X connect 15 0 22 1;
#X connect 16 0 4 0;
#X connect 17 0 5 0;
#X connect 18 0 19 0;
#X connect 19 0 15 0;
#X connect 20 0 21 0;
#X connect 21 0 2 0;
#X connect 22 0 14 0;
#X connect 22 0 3 0;
#X connect 23 0 24 0;
#X connect 24 0 10 0;
#X connect 25 0 26 0;
#X connect 26 0 11 0;
#X connect 27 0 28 0;
#X connect 28 0 6 0;
#X connect 29 0 30 0;
#X connect 30 0 7 0;
#X connect 31 0 32 0;
#X connect 32 0 8 0;
#X connect 33 0 34 0;
#X connect 34 0 20 0;
#X connect 35 0 36 0;
#X connect 36 0 12 0;
#X coords 0 -1 1 1 156 56 2 102 102;
